<svg xmlns="http://www.w3.org/2000/svg" xmlns:xlink="http://www.w3.org/1999/xlink" version="1.1" width="256" height="256" viewBox="30 30 190 180" xml:space="preserve">

<defs>
</defs>
<g style="stroke: none; stroke-width: 0; stroke-dasharray: none; stroke-linecap: butt; stroke-linejoin: miter; stroke-miterlimit: 10; fill: none; fill-rule: nonzero; opacity: 1;" transform="translate(1.4065934065934016 1.4065934065934016) scale(2.81 2.81)" >
	<path d="M 64.903 70.097 H 25.097 C 11.236 70.097 0 58.861 0 45 v 0 c 0 -13.861 11.236 -25.097 25.097 -25.097 h 39.806 C 78.764 19.903 90 31.139 90 45 v 0 C 90 58.861 78.764 70.097 64.903 70.097 z" style="stroke: none; stroke-width: 1; stroke-dasharray: none; stroke-linecap: butt; stroke-linejoin: miter; stroke-miterlimit: 10; fill: rgb(167,41,245); fill-rule: nonzero; opacity: 1;" transform=" matrix(1 0 0 1 0 0) " stroke-linecap="round" />
	<path d="M 64.903 62.898 L 64.903 62.898 c 9.885 0 17.898 -8.013 17.898 -17.898 v 0 c 0 -9.885 -8.013 -17.898 -17.898 -17.898 h 0 c -9.885 0 -17.898 8.013 -17.898 17.898 v 0 C 47.005 54.885 55.018 62.898 64.903 62.898 z" style="stroke: none; stroke-width: 1; stroke-dasharray: none; stroke-linecap: butt; stroke-linejoin: miter; stroke-miterlimit: 10; fill: rgb(255,255,255); fill-rule: nonzero; opacity: 1;" transform=" matrix(1 0 0 1 0 0) " stroke-linecap="round" />
</g>
</svg>