<svg xmlns="http://www.w3.org/2000/svg" xmlns:xlink="http://www.w3.org/1999/xlink" version="1.1" width="256" height="256" viewBox="30 30 190 180" xml:space="preserve">

<defs>
</defs>
<g style="stroke: none; stroke-width: 0; stroke-dasharray: none; stroke-linecap: butt; stroke-linejoin: miter; stroke-miterlimit: 10; fill: none; fill-rule: nonzero; opacity: 1;" transform="translate(1.4065934065934016 1.4065934065934016) scale(2.81 2.81)" >
	<path d="M 26.523 71.523 h 36.954 C 78.125 71.523 90 59.648 90 45 v 0 c 0 -14.648 -11.875 -26.523 -26.523 -26.523 H 26.523 C 11.875 18.477 0 30.352 0 45 v 0 C 0 59.648 11.875 71.523 26.523 71.523 z" style="stroke: none; stroke-width: 1; stroke-dasharray: none; stroke-linecap: butt; stroke-linejoin: miter; stroke-miterlimit: 10; fill: rgb(167,41,245); fill-rule: nonzero; opacity: 1;" transform=" matrix(1 0 0 1 0 0) " stroke-linecap="round" />
	<path d="M 26.517 64.025 L 26.517 64.025 C 16.01 64.025 7.492 55.507 7.492 45 v 0 c 0 -10.507 8.518 -19.025 19.025 -19.025 h 0 c 10.507 0 19.025 8.518 19.025 19.025 v 0 C 45.542 55.507 37.024 64.025 26.517 64.025 z" style="stroke: none; stroke-width: 1; stroke-dasharray: none; stroke-linecap: butt; stroke-linejoin: miter; stroke-miterlimit: 10; fill: rgb(255,255,255); fill-rule: nonzero; opacity: 1;" transform=" matrix(1 0 0 1 0 0) " stroke-linecap="round" />
</g>
</svg>